# xmcd
#
# Track frame offsets: 
#        150
#        10717
#        25213
#        34655
#        50696
#        63667
#        77604
#        97163
#        115284
#        131254
#
# Disc length: 1903 seconds
#
# Revision: 0
# Processed by: cddbd v1.5.2PL0 Copyright (c) Steve Scherf et al.
# Submitted via: ExactAudioCopyFreeDBPlugin 1.0
#
DISCID=7d076d0a
DTITLE=Willie Nelson - Country
DYEAR=2012
DGENRE=Country
TTITLE0=Blue Eyes Crying in the Rain
TTITLE1=Family Bible
TTITLE2=If You've Got the Money I've Got the Time
TTITLE3=Whiskey River
TTITLE4=Midnight Rider
TTITLE5=My Heroes have Always been Cowboys
TTITLE6=Georgia on My Mind
TTITLE7=Help Me Make it Through the Night
TTITLE8=Always on My Mind
TTITLE9=On the Road Again
EXTD=
EXTT0=
EXTT1=
EXTT2=
EXTT3=
EXTT4=
EXTT5=
EXTT6=
EXTT7=
EXTT8=
EXTT9=
PLAYORDER=
